<svg width="35" height="29" viewBox="0 0 35 29" fill="none" xmlns="http://www.w3.org/2000/svg">
<path fill-rule="evenodd" clip-rule="evenodd" d="M6.78126 20.1026C6.98782 19.8766 7.31199 19.7436 7.65626 19.7436H13.125C13.7291 19.7436 14.2188 20.1454 14.2188 20.641C14.2188 21.1367 13.7291 21.5385 13.125 21.5385H8.20313L3.28126 26.9231H31.7188L26.7969 21.5385H21.875C21.2709 21.5385 20.7813 21.1367 20.7813 20.641C20.7813 20.1454 21.2709 19.7436 21.875 19.7436H27.3438C27.688 19.7436 28.0122 19.8766 28.2188 20.1026L34.7813 27.2821C35.0298 27.554 35.0698 27.9178 34.8845 28.2219C34.6993 28.5259 34.3205 28.7179 33.9063 28.7179H1.09376C0.679474 28.7179 0.300749 28.5259 0.115477 28.2219C-0.0697959 27.9178 -0.0298129 27.554 0.218756 27.2821L6.78126 20.1026Z" fill="#3b851e"/>
<path fill-rule="evenodd" clip-rule="evenodd" d="M8.75001 7.17949C8.75001 3.21437 12.6675 0 17.5 0C22.3325 0 26.25 3.21437 26.25 7.17949C26.25 10.8407 22.91 13.8618 18.5938 14.3034V24.2308C18.5938 24.7264 18.1041 25.1282 17.5 25.1282C16.8959 25.1282 16.4063 24.7264 16.4063 24.2308V14.3034C12.09 13.8618 8.75001 10.8407 8.75001 7.17949Z" fill="#3b851e"/>
</svg>
