<svg width="27" height="30" viewBox="0 0 27 30" fill="none" xmlns="http://www.w3.org/2000/svg" id="tel">
<path fill-rule="evenodd" clip-rule="evenodd" d="M3.18055 0.958267C4.43287 -0.433197 6.4994 -0.290245 7.58671 1.26306L10.6136 5.58717C11.1691 6.3807 11.3653 7.41391 11.1459 8.38918L10.2224 12.4937C10.1249 12.927 10.2392 13.3854 10.5234 13.7012L14.6689 18.3073C14.9532 18.6232 15.3657 18.7501 15.7557 18.6418L19.4497 17.6157C20.3275 17.3718 21.2574 17.5899 21.9715 18.2071L25.8632 21.5703C27.2612 22.7784 27.3899 25.0746 26.1376 26.4661L24.3928 28.4047C23.1445 29.7916 21.2775 30.4007 19.5375 29.7209C15.2171 28.0332 11.1618 25.2701 7.70933 21.4341C4.25688 17.598 1.7701 13.0921 0.251164 8.29172C-0.360589 6.35836 0.187532 4.28385 1.43581 2.89687L3.18055 0.958267Z" fill="#3b851e"/>
<path fill-rule="evenodd" clip-rule="evenodd" d="M21.3409 1.21209C21.6704 0.845971 22.2046 0.845971 22.5341 1.21209L26.7529 5.89959C27.0824 6.2657 27.0824 6.8593 26.7529 7.22541L22.5341 11.9129C22.2046 12.279 21.6704 12.279 21.3409 11.9129C21.0114 11.5468 21.0114 10.9532 21.3409 10.5871L24.1193 7.5H16.0312C15.5653 7.5 15.1875 7.08027 15.1875 6.5625C15.1875 6.04473 15.5653 5.625 16.0312 5.625H24.1193L21.3409 2.53791C21.0114 2.1718 21.0114 1.5782 21.3409 1.21209Z" fill="#3b851e"/>
</svg>
